<?xml version="1.0" standalone="no"?>
<!DOCTYPE svg PUBLIC "-//W3C//DTD SVG 20010904//EN"
 "http://www.w3.org/TR/2001/REC-SVG-20010904/DTD/svg10.dtd">
<svg version="1.0" xmlns="http://www.w3.org/2000/svg"
 width="1024.000000pt" height="1024.000000pt" viewBox="0 0 1024.000000 1024.000000"
 preserveAspectRatio="xMidYMid meet">
<metadata>
Created by potrace 1.14, written by Peter Selinger 2001-2017
</metadata>
<g transform="translate(0.000000,1024.000000) scale(0.100000,-0.100000)"
fill="#000000" stroke="none">
<path d="M2995 8990 c-415 -14 -605 -50 -848 -159 -326 -146 -598 -421 -742
-750 -87 -197 -118 -330 -147 -621 -15 -163 -24 -4199 -9 -4520 14 -301 40
-481 90 -625 21 -60 41 -118 46 -127 7 -17 -2 -18 -115 -18 -143 0 -138 17
-50 -165 238 -493 677 -829 1230 -939 185 -37 281 -45 653 -57 464 -15 4193
-6 4367 10 556 51 925 212 1246 542 147 152 247 301 339 504 l45 100 -121 3
c-109 2 -121 4 -116 20 3 9 19 57 37 106 36 100 62 228 82 396 19 165 19 4648
0 4820 -45 408 -145 665 -359 921 -179 216 -416 374 -701 469 -118 39 -237 60
-452 81 -135 14 -4116 21 -4475 9z m1369 -1386 c65 -25 130 -84 151 -136 27
-67 23 -156 -10 -223 -15 -31 -40 -65 -55 -77 l-28 -20 41 -32 c61 -46 109
-144 109 -223 0 -82 -19 -136 -65 -189 -44 -49 -96 -80 -172 -100 -67 -18
-435 -20 -453 -2 -18 18 -17 999 1 1017 9 10 60 12 222 8 177 -3 218 -7 259
-23z m-1346 -323 l203 -106 -3 -54 -3 -54 -245 -143 c-420 -247 -437 -256
-460 -249 -19 6 -21 13 -18 77 l3 71 255 144 c140 79 256 147 257 151 2 4
-114 67 -257 140 l-260 134 0 63 c0 51 4 66 18 74 18 10 22 8 510 -248z m2317
67 c28 -14 58 -35 68 -46 18 -20 18 -22 -15 -81 -18 -33 -40 -62 -48 -64 -22
-6 -40 3 -40 18 0 30 -51 55 -109 55 -74 0 -126 -30 -166 -94 l-30 -49 -5
-246 -5 -246 -75 0 -75 0 -3 374 c-2 267 1 378 9 387 14 18 120 19 137 2 7 -7
12 -22 12 -35 0 -27 12 -30 31 -7 14 17 59 42 99 55 49 16 162 4 215 -23z
m683 17 c76 -23 131 -70 170 -145 37 -72 56 -178 46 -247 l-6 -43 -254 0
c-284 0 -268 5 -243 -71 47 -140 223 -189 348 -98 23 16 47 29 54 29 7 0 31
-18 52 -40 l39 -40 -39 -40 c-49 -50 -104 -77 -185 -92 -127 -22 -284 30 -355
117 -94 114 -117 305 -56 466 63 166 252 256 429 204z m516 -243 c28 -133 53
-237 57 -230 3 7 27 102 53 211 l48 197 49 0 c60 0 53 13 129 -243 29 -97 55
-176 56 -174 7 7 45 286 51 372 3 49 10 96 16 103 5 7 32 12 62 12 82 0 83 -3
56 -194 -22 -156 -69 -428 -92 -534 l-11 -52 -73 0 -74 0 -20 68 c-11 37 -36
126 -57 197 -20 72 -37 131 -38 132 -1 1 -26 -88 -56 -197 l-53 -200 -74 0
c-40 0 -73 3 -73 8 0 4 -34 171 -74 372 -86 421 -87 403 13 398 l56 -3 49
-243z m-2432 -1637 c62 -124 115 -225 118 -225 3 0 57 101 120 225 l115 225
51 0 c32 0 56 -5 63 -14 8 -9 10 -153 9 -517 l-3 -504 -70 0 -70 0 -5 335 -5
335 -86 -160 -86 -160 -39 -3 -39 -3 -80 158 -80 158 -5 -330 -5 -330 -58 -3
c-35 -2 -64 2 -73 9 -12 10 -14 92 -14 508 0 373 3 500 12 509 7 7 36 12 65
12 l53 0 112 -225z m826 -187 c32 -84 79 -204 103 -266 23 -61 46 -109 50
-105 13 14 121 356 138 437 l18 81 68 0 c89 0 95 -9 72 -103 -18 -77 -235
-696 -273 -782 -29 -64 -73 -113 -129 -143 -30 -16 -58 -22 -115 -22 -65 0
-82 4 -129 30 -29 16 -56 35 -58 43 -8 20 64 122 86 122 10 0 26 -11 35 -25
21 -32 72 -41 118 -22 28 12 42 28 66 77 l31 61 -19 47 c-10 26 -77 190 -149
366 -150 368 -149 356 -40 356 l67 0 60 -152z m-826 -1733 c62 -124 115 -225
118 -225 3 0 57 101 120 225 l115 225 51 0 c32 0 56 -5 63 -14 8 -9 10 -153 9
-517 l-3 -504 -70 0 -70 0 -5 335 -5 335 -86 -160 -86 -160 -39 -3 -39 -3 -80
158 -80 158 -5 -330 -5 -330 -58 -3 c-35 -2 -64 2 -73 9 -12 10 -14 92 -14
508 0 373 3 500 12 509 7 7 36 12 65 12 l53 0 112 -225z m1113 -54 c102 -45
157 -128 175 -263 14 -110 13 -471 -2 -486 -16 -16 -140 -16 -156 0 -7 7 -12
21 -12 32 0 18 -1 18 -18 3 -10 -9 -40 -26 -67 -39 -71 -31 -209 -31 -280 1
-93 41 -138 107 -138 201 0 141 124 245 322 270 41 6 104 7 138 4 57 -6 63 -5
63 12 -1 37 -39 104 -72 124 -73 44 -192 36 -272 -19 -26 -18 -51 -28 -60 -25
-9 3 -29 24 -46 47 l-30 41 28 29 c31 33 104 73 159 87 65 16 212 6 268 -19z
m851 14 c63 -18 137 -67 171 -112 l26 -34 -49 -50 c-26 -27 -56 -49 -64 -49
-9 0 -28 17 -41 38 -31 48 -85 74 -157 75 -60 0 -122 -24 -153 -59 -44 -50
-63 -108 -63 -189 -1 -70 3 -87 29 -135 18 -33 47 -66 73 -84 81 -57 214 -46
276 23 29 32 50 26 97 -30 l43 -52 -39 -34 c-94 -81 -215 -115 -326 -94 -129
26 -228 99 -282 210 -31 63 -32 71 -32 186 0 110 2 125 28 180 47 101 134 177
242 211 55 17 161 17 221 -1z"/>
<path d="M4030 7355 l0 -137 123 4 c170 5 219 34 219 132 0 96 -54 129 -224
134 l-118 4 0 -137z"/>
<path d="M4030 6904 l0 -176 128 4 c140 4 188 19 225 69 48 66 26 190 -42 234
-41 28 -133 45 -238 45 l-73 0 0 -176z"/>
<path d="M5870 7240 c-19 -3 -48 -14 -63 -24 -33 -22 -77 -93 -77 -124 0 -22
2 -22 170 -22 157 0 170 1 170 18 0 29 -48 116 -72 131 -31 19 -85 28 -128 21z"/>
<path d="M4980 3080 c-71 -24 -100 -57 -100 -114 0 -33 6 -48 26 -67 23 -21
35 -24 108 -24 73 0 87 3 124 28 50 33 88 87 100 144 12 52 10 53 -111 53 -64
-1 -109 -7 -147 -20z"/>
</g>
</svg>
